<svg height="512" viewBox="0 0 74 74" width="512" xmlns="http://www.w3.org/2000/svg"><g id="color_line" data-name="color line"><rect fill="#9297ab" height="58.076" rx="5.207" width="68" x="3" y="7.962"/><path d="m65.793 7.962h-57.586a5.2 5.2 0 0 0 -4.859 3.379 5.189 5.189 0 0 1 .876-.088h57.587a5.207 5.207 0 0 1 5.207 5.207v47.662a5.167 5.167 0 0 1 -.347 1.828 5.2 5.2 0 0 0 4.329-5.118v-47.664a5.207 5.207 0 0 0 -5.207-5.206z" fill="#84879c"/><path d="m18.821 4.123h36.358v56.018h-36.358z" fill="#eeefee" transform="matrix(0 1 -1 0 69.132 -4.868)"/><path d="m65.009 50.811h-56.018a.5.5 0 0 1 -.5-.5v-36.358a.5.5 0 0 1 .5-.5h56.018a.5.5 0 0 1 .5.5v36.358a.5.5 0 0 1 -.5.5zm-55.518-1h55.018v-35.358h-55.018z" fill="#323c6b"/><circle cx="15.896" cy="58.061" fill="#fe7058" r="2.896"/><path d="m15.9 61.457a3.4 3.4 0 1 1 3.4-3.4 3.4 3.4 0 0 1 -3.4 3.4zm0-5.792a2.4 2.4 0 1 0 2.4 2.4 2.4 2.4 0 0 0 -2.4-2.4z" fill="#323c6b"/><circle cx="28.917" cy="58.061" fill="#fe7058" r="2.896"/><g fill="#323c6b"><path d="m28.917 61.457a3.4 3.4 0 1 1 3.4-3.4 3.4 3.4 0 0 1 -3.4 3.4zm0-5.792a2.4 2.4 0 1 0 2.4 2.4 2.4 2.4 0 0 0 -2.4-2.4z"/><path d="m48 59.917a.5.5 0 0 1 -.5-.5v-2.334a.5.5 0 0 1 1 0v2.333a.5.5 0 0 1 -.5.501z"/><path d="m55.094 59.917a.5.5 0 0 1 -.5-.5v-2.334a.5.5 0 0 1 1 0v2.333a.5.5 0 0 1 -.5.501z"/><path d="m62.188 59.917a.5.5 0 0 1 -.5-.5v-2.334a.5.5 0 0 1 1 0v2.333a.5.5 0 0 1 -.5.501z"/><path d="m31.748 44.695a.5.5 0 0 1 -.477-.356l-5.238-17.416-2.707 7.037a.5.5 0 0 1 -.467.32h-8.425a.5.5 0 0 1 0-1h8.082l3.109-8.08a.479.479 0 0 1 .485-.32.5.5 0 0 1 .46.355l5.186 17.25 7.018-22.563a.5.5 0 0 1 .478-.352.5.5 0 0 1 .478.354l6.67 21.776 4.059-8.14a.5.5 0 0 1 .447-.277h8.657a.5.5 0 0 1 0 1h-8.344l-4.479 8.983a.5.5 0 0 1 -.926-.077l-6.567-21.424-7.021 22.578a.5.5 0 0 1 -.478.352z"/><path d="m57.313 69.538h-9.875a.5.5 0 0 1 0-1h9.875a.5.5 0 0 1 0 1z"/><path d="m45.125 69.538h-.312a.5.5 0 0 1 0-1h.313a.5.5 0 0 1 0 1z"/><path d="m.442 11.042a.5.5 0 0 1 -.474-.661 8.7 8.7 0 0 1 8.239-5.919h.9a.5.5 0 0 1 0 1h-.9a7.7 7.7 0 0 0 -7.291 5.238.5.5 0 0 1 -.474.342z"/><path d="m11.979 5.462h-.521a.5.5 0 0 1 0-1h.521a.5.5 0 0 1 0 1z"/><path d="m65.793 66.538h-57.586a5.714 5.714 0 0 1 -5.707-5.706v-47.664a5.714 5.714 0 0 1 5.707-5.706h57.586a5.714 5.714 0 0 1 5.707 5.706v47.664a5.714 5.714 0 0 1 -5.707 5.706zm-57.586-58.076a4.712 4.712 0 0 0 -4.707 4.706v47.664a4.712 4.712 0 0 0 4.707 4.707h57.586a4.712 4.712 0 0 0 4.707-4.707v-47.664a4.712 4.712 0 0 0 -4.707-4.707z"/></g><path d="m5.287 36.146.047-8.517a.735.735 0 0 1 1.47.005l-.047 8.517a.735.735 0 0 1 -1.47-.005z" fill="#fff"/><path d="m5.277 39.173v-.388a.735.735 0 0 1 1.47.005v.388a.735.735 0 0 1 -1.47-.005z" fill="#fff"/></g></svg>